<?xml version="1.0" standalone="no"?>
<!DOCTYPE svg PUBLIC "-//W3C//DTD SVG 20010904//EN"
 "http://www.w3.org/TR/2001/REC-SVG-20010904/DTD/svg10.dtd">
<svg version="1.0" xmlns="http://www.w3.org/2000/svg"
 width="640.000000pt" height="640.000000pt" viewBox="0 0 640.000000 640.000000"
 preserveAspectRatio="xMidYMid meet">
<metadata>
Created by potrace 1.14, written by Peter Selinger 2001-2017
</metadata>
<g transform="translate(0.000000,640.000000) scale(0.100000,-0.100000)"
fill="#000000" stroke="none">
<path d="M2374 4705 c-4 -8 -4 -21 -1 -29 8 -21 -22 -29 -48 -12 -19 12 -22
12 -22 0 0 -8 3 -12 5 -9 3 3 11 0 18 -6 6 -5 24 -7 38 -3 22 5 26 12 26 40 0
36 -7 44 -16 19z"/>
<path d="M4010 4603 c0 -78 4 -123 10 -123 19 0 22 28 13 100 -7 49 -6 70 1
70 6 0 4 4 -4 10 -23 14 8 22 45 11 17 -5 22 -10 12 -10 -10 -1 -15 -6 -12
-11 5 -8 11 -7 21 1 11 9 18 8 32 -2 15 -13 16 -12 3 3 -7 10 -32 23 -54 29
-23 6 -47 18 -54 27 -10 14 -12 -5 -13 -105z"/>
<path d="M2212 4620 c-71 -42 -94 -61 -45 -36 18 9 39 16 48 16 8 0 15 4 15 9
0 5 15 18 33 30 56 36 15 21 -51 -19z"/>
<path d="M2368 4473 c-2 -93 1 -174 6 -180 6 -9 3 -13 -7 -13 -8 0 -18 6 -20
13 -3 7 -6 6 -6 -5 -1 -9 9 -20 21 -24 l23 -7 -23 -8 c-21 -8 -22 -13 -20
-126 l2 -118 6 120 6 120 2 -162 c1 -101 6 -163 12 -163 19 0 10 -21 -12 -29
-17 -6 -24 -5 -28 6 -4 11 -10 7 -20 -12 -8 -15 -26 -29 -42 -32 -15 -3 -28
-10 -28 -16 0 -15 -33 -36 -57 -37 -13 0 -23 -4 -23 -10 0 -5 -6 -10 -13 -10
-7 0 -22 -7 -33 -15 -19 -15 -19 -15 1 -8 11 3 17 2 12 -2 -4 -5 -16 -9 -27
-10 -11 -1 -27 -10 -35 -21 -8 -10 -15 -14 -15 -7 0 6 5 15 10 18 15 9 12 22
-5 22 -8 0 -12 -4 -9 -9 5 -8 -9 -41 -17 -38 -2 1 -17 -4 -32 -11 -19 -9 -24
-15 -15 -20 7 -5 20 -1 30 8 17 15 18 6 18 -195 0 -117 3 -212 6 -212 3 0 54
28 112 62 59 33 123 70 142 81 19 10 50 28 68 39 l32 20 0 -206 c0 -235 -10
-219 99 -154 34 21 65 38 68 38 3 0 34 18 69 40 35 22 66 40 68 40 3 0 39 20
81 45 41 25 109 65 150 90 42 25 78 45 80 45 3 0 27 14 55 31 l50 31 0 414 0
414 -52 -28 c-29 -16 -98 -55 -153 -87 -55 -32 -111 -64 -125 -72 l-25 -13 -5
205 -5 205 -35 -23 c-19 -13 -66 -41 -105 -62 -38 -21 -82 -46 -97 -57 -14
-10 -30 -18 -35 -18 -4 0 -25 -11 -45 -25 -39 -27 -72 -35 -50 -13 8 8 12 59
12 165 0 211 -18 199 -22 -14z"/>
<path d="M4150 4631 c0 -5 5 -13 11 -17 8 -4 8 -9 0 -17 -13 -13 -15 -40 -2
-32 5 3 16 -2 24 -10 9 -8 21 -15 27 -15 7 0 10 -6 7 -14 -8 -20 26 -26 48
-10 10 8 30 14 44 14 l26 0 -29 15 c-32 17 -49 20 -26 5 12 -8 11 -10 -7 -10
-13 0 -23 -6 -23 -12 0 -7 -7 -2 -16 10 -8 12 -22 22 -30 22 -8 0 -12 5 -9 10
3 6 -1 13 -9 16 -21 8 -10 25 12 18 15 -5 15 -4 2 5 -31 24 -50 32 -50 22z
m35 -59 c-3 -3 -11 0 -18 7 -9 10 -8 11 6 5 10 -3 15 -9 12 -12z"/>
<path d="M4220 4592 c0 -6 9 -12 20 -15 11 -3 20 -3 20 -1 0 2 -9 8 -20 14
-11 6 -20 7 -20 2z"/>
<path d="M2205 4580 c-3 -5 0 -7 8 -4 8 3 17 2 20 -3 3 -4 -9 -9 -26 -10 -18
-2 -33 -7 -35 -13 -2 -5 -14 -10 -26 -10 -31 0 -38 -9 -21 -27 17 -17 51 -13
48 5 -2 7 3 12 10 12 22 0 67 24 67 36 0 7 -7 15 -16 18 -21 8 -22 8 -29 -4z"/>
<path d="M4103 4535 c0 -33 2 -45 4 -27 2 18 2 45 0 60 -2 15 -4 0 -4 -33z"/>
<path d="M2100 4550 c-8 -5 -10 -10 -5 -10 6 0 17 5 25 10 8 5 11 10 5 10 -5
0 -17 -5 -25 -10z"/>
<path d="M2055 4520 c6 -10 4 -12 -11 -6 -10 4 -15 4 -11 0 4 -4 -1 -12 -10
-19 -13 -10 -11 -12 18 -12 19 0 26 2 16 4 -17 4 -17 5 -1 17 13 10 14 15 4
21 -9 6 -11 4 -5 -5z"/>
<path d="M4335 4520 c-4 -6 -10 -8 -15 -5 -5 3 -11 1 -15 -5 -10 -16 21 -12
35 5 7 8 10 15 7 15 -3 0 -9 -5 -12 -10z"/>
<path d="M3650 4316 c0 -113 -3 -206 -7 -206 -5 0 -35 16 -68 36 -33 20 -78
47 -100 59 -22 12 -71 40 -110 62 l-70 41 -3 -407 c-1 -223 0 -411 2 -417 4
-11 180 -116 261 -156 22 -11 47 -26 55 -33 8 -7 47 -29 85 -50 39 -21 86 -48
105 -61 19 -13 38 -24 41 -24 4 0 36 -17 70 -38 109 -65 99 -81 99 154 l0 206
23 -14 c12 -8 54 -32 92 -53 39 -21 81 -46 95 -55 32 -21 138 -80 145 -80 3 0
5 95 5 212 0 207 0 211 19 194 10 -10 21 -14 24 -9 3 5 -6 18 -19 30 -13 12
-24 16 -24 10 0 -6 -7 -1 -16 11 -12 17 -19 20 -29 12 -9 -8 -19 -4 -36 15
-13 13 -30 25 -36 25 -7 0 -13 8 -13 17 0 13 -3 14 -11 6 -12 -12 -56 9 -72
34 -4 7 -17 13 -29 13 -14 0 -18 5 -15 15 7 17 -9 30 -18 15 -4 -6 -12 -7 -22
-1 -14 7 -16 33 -14 190 2 127 -1 181 -9 181 -7 0 -8 6 -1 19 9 17 8 18 -12
14 -18 -5 -20 -3 -9 8 6 7 12 20 12 29 0 13 -1 13 -10 0 -8 -13 -13 -13 -37 2
-16 10 -43 25 -61 33 -17 8 -57 31 -87 50 -30 19 -57 35 -60 35 -3 0 -29 15
-58 33 -29 18 -58 37 -64 41 -10 6 -13 -37 -13 -198z m400 -233 c0 -148 -8
-199 -27 -179 -4 5 -2 11 5 13 9 4 12 46 12 164 0 87 2 159 5 159 3 0 5 -71 5
-157z m300 -364 c0 -6 -4 -7 -10 -4 -5 3 -10 11 -10 16 0 6 5 7 10 4 6 -3 10
-11 10 -16z"/>
<path d="M4346 4505 c-11 -8 -16 -18 -11 -22 4 -5 10 -2 12 5 4 10 8 10 19 1
19 -16 27 -7 11 14 -11 14 -14 14 -31 2z"/>
<path d="M2226 4497 c-18 -13 -18 -14 -1 -21 22 -8 28 -3 23 19 -3 14 -5 14
-22 2z"/>
<path d="M1965 4476 c-16 -13 -40 -26 -52 -30 -29 -9 -29 -23 -2 -31 14 -5 27
-1 38 11 15 17 15 17 -1 5 -10 -7 -23 -11 -30 -9 -8 3 0 12 18 21 17 9 34 13
38 10 3 -4 6 1 6 11 0 9 5 14 10 11 6 -3 10 1 10 9 0 20 1 20 -35 -8z"/>
<path d="M2110 4490 c8 -5 24 -9 35 -9 l20 0 -20 9 c-11 5 -27 9 -35 9 -13 1
-13 0 0 -9z"/>
<path d="M4150 4485 c0 -17 2 -18 24 -9 23 9 20 24 -4 24 -11 0 -20 -7 -20
-15z"/>
<path d="M4418 4471 c12 -11 22 -25 22 -33 0 -10 3 -9 10 2 6 9 10 11 10 3 0
-7 7 -10 17 -6 9 4 14 2 10 -3 -3 -5 3 -10 14 -10 19 0 19 1 3 13 -10 7 -23
13 -28 13 -6 0 -22 9 -36 20 -32 25 -52 26 -22 1z"/>
<path d="M1992 4435 c-12 -13 -33 -27 -47 -31 -25 -6 -31 -15 -18 -27 3 -4 11
0 18 9 6 9 26 18 44 20 45 5 71 21 65 39 -9 23 -38 18 -62 -10z"/>
<path d="M4350 4446 c0 -20 28 -34 54 -29 17 4 18 3 6 -6 -19 -13 -1 -14 20
-1 11 7 11 10 2 10 -7 0 -10 4 -7 10 4 6 -1 7 -11 3 -13 -5 -16 -2 -12 8 4 11
-2 16 -23 17 -20 2 -29 -2 -29 -12z"/>
<path d="M1862 4421 c-11 -7 -11 -9 0 -14 9 -3 15 1 15 9 0 8 -1 14 -1 14 -1
0 -7 -4 -14 -9z"/>
<path d="M4530 4410 c0 -5 5 -10 11 -10 5 0 7 5 4 10 -3 6 -8 10 -11 10 -2 0
-4 -4 -4 -10z"/>
<path d="M4450 4401 c0 -5 7 -11 15 -15 9 -3 15 0 15 9 0 8 -7 15 -15 15 -8 0
-15 -4 -15 -9z"/>
<path d="M1822 4393 c-8 -3 -4 -11 13 -25 27 -21 56 -21 63 0 3 10 -5 13 -29
11 -23 -2 -33 1 -31 9 1 7 1 12 0 11 -2 0 -9 -3 -16 -6z"/>
<path d="M4565 4356 c1 -16 8 -32 16 -34 11 -3 11 -1 -1 7 -12 9 -11 11 7 11
26 0 40 17 25 32 -6 6 -12 6 -17 -3 -6 -8 -4 -10 5 -4 8 5 11 4 6 -3 -4 -6
-13 -9 -22 -5 -10 4 -11 9 -4 18 7 8 6 12 -3 12 -8 0 -13 -12 -12 -31z"/>
<path d="M2040 4366 c0 -19 31 -30 41 -14 4 6 5 16 3 20 -9 14 -44 9 -44 -6z"/>
<path d="M4317 4373 c-11 -10 -8 -20 8 -27 22 -8 45 3 38 20 -5 14 -35 19 -46
7z"/>
<path d="M4500 4374 c0 -10 28 -34 39 -34 20 0 11 17 -14 28 -14 6 -25 9 -25
6z"/>
<path d="M1734 4344 c-27 -14 -50 -27 -51 -28 -8 -8 -11 -76 -3 -71 6 4 11 21
11 38 2 31 2 31 6 4 5 -34 23 -25 23 12 0 30 38 59 61 46 7 -5 10 -4 5 3 -3 5
0 13 6 15 8 3 8 6 2 6 -6 1 -33 -11 -60 -25z"/>
<path d="M4624 4339 c-10 -11 -12 -19 -6 -19 7 0 12 4 12 9 0 5 10 11 23 13
18 3 19 4 5 10 -10 4 -23 -1 -34 -13z"/>
<path d="M1760 4330 c0 -5 5 -10 11 -10 5 0 7 5 4 10 -3 6 -8 10 -11 10 -2 0
-4 -4 -4 -10z"/>
<path d="M1800 4330 c0 -5 5 -10 10 -10 6 0 10 5 10 10 0 6 -4 10 -10 10 -5 0
-10 -4 -10 -10z"/>
<path d="M1960 4330 c0 -5 11 -10 25 -10 14 0 25 5 25 10 0 6 -11 10 -25 10
-14 0 -25 -4 -25 -10z"/>
<path d="M4380 4330 c0 -5 14 -10 30 -10 17 0 30 5 30 10 0 6 -13 10 -30 10
-16 0 -30 -4 -30 -10z"/>
<path d="M4667 4324 c-7 -7 14 -44 26 -44 12 0 4 43 -9 47 -5 2 -13 1 -17 -3z"/>
<path d="M2284 4160 c0 -85 2 -120 3 -77 2 42 2 112 0 155 -1 42 -3 7 -3 -78z"/>
<path d="M4103 4240 c0 -41 2 -58 4 -37 2 20 2 54 0 75 -2 20 -4 3 -4 -38z"/>
<path d="M4680 4250 c0 -5 5 -10 11 -10 5 0 7 5 4 10 -3 6 -8 10 -11 10 -2 0
-4 -4 -4 -10z"/>
<path d="M4642 3933 c1 -208 3 -240 9 -163 11 130 10 420 -2 420 -5 0 -8 -107
-7 -257z"/>
<path d="M4714 3995 c0 -93 2 -133 3 -88 2 45 2 122 0 170 -1 48 -3 12 -3 -82z"/>
<path d="M2340 3950 c0 -22 3 -40 8 -40 4 0 6 18 4 40 -2 22 -6 40 -8 40 -2 0
-4 -18 -4 -40z"/>
<path d="M4117 3967 c-7 -21 3 -35 23 -30 25 7 25 19 1 32 -14 8 -20 7 -24 -2z"/>
<path d="M2268 3959 c-10 -5 -18 -15 -18 -21 0 -7 4 -7 13 1 8 6 17 8 20 4 4
-3 7 1 7 10 0 20 0 20 -22 6z"/>
<path d="M2322 3950 c0 -14 2 -19 5 -12 2 6 2 18 0 25 -3 6 -5 1 -5 -13z"/>
<path d="M2260 3870 c0 -5 4 -10 9 -10 6 0 13 5 16 10 3 6 -1 10 -9 10 -9 0
-16 -4 -16 -10z"/>
<path d="M1680 3710 c0 -73 3 -131 6 -128 7 7 6 249 -1 256 -3 3 -5 -55 -5
-128z"/>
<path d="M4206 3831 c-11 -4 -15 -10 -10 -13 5 -4 20 0 34 8 26 14 9 18 -24 5z"/>
<path d="M4693 3760 c0 -47 2 -66 4 -42 2 23 2 61 0 85 -2 23 -4 4 -4 -43z"/>
<path d="M2180 3820 c0 -5 4 -10 9 -10 6 0 13 5 16 10 3 6 -1 10 -9 10 -9 0
-16 -4 -16 -10z"/>
<path d="M2080 3805 c0 -8 7 -15 15 -15 8 0 15 7 15 15 0 8 -7 15 -15 15 -8 0
-15 -7 -15 -15z"/>
<path d="M4297 3814 c-8 -8 1 -24 14 -24 5 0 9 7 9 15 0 15 -12 20 -23 9z"/>
<path d="M1933 3803 c-18 -7 -16 -43 1 -43 20 0 29 17 14 26 -8 5 -6 10 8 15
12 5 13 8 4 8 -8 -1 -21 -3 -27 -6z"/>
<path d="M4444 3801 c14 -5 16 -10 8 -15 -15 -9 -6 -26 12 -26 16 0 16 31 1
42 -5 4 -17 7 -25 7 -10 0 -9 -3 4 -8z"/>
<path d="M4460 3680 c0 -5 7 -10 16 -10 8 0 12 5 9 10 -3 6 -10 10 -16 10 -5
0 -9 -4 -9 -10z"/>
<path d="M4712 3612 c2 -51 -1 -81 -7 -79 -5 2 -10 15 -10 30 0 14 -4 29 -8
34 -5 4 -7 1 -5 -7 2 -10 -3 -14 -14 -12 -10 2 -18 -2 -18 -8 0 -5 7 -10 15
-10 13 0 20 -19 16 -44 -1 -5 5 -6 13 -3 9 4 15 3 13 -1 -1 -4 3 -8 8 -10 14
-3 19 168 5 182 -9 8 -11 -11 -8 -72z"/>
<path d="M1911 3676 c2 -2 15 -9 29 -15 24 -11 24 -11 6 3 -16 13 -49 24 -35
12z"/>
<path d="M4504 3669 c-5 -9 1 -10 22 -5 18 4 24 3 16 -2 -11 -7 -10 -10 3 -16
23 -9 55 -8 55 2 0 8 -58 32 -78 32 -6 0 -14 -5 -18 -11z"/>
<path d="M1833 3663 c-33 -4 -51 -27 -31 -39 7 -4 14 -2 16 4 2 7 9 12 15 12
7 0 21 7 31 15 11 8 16 14 10 13 -5 0 -23 -3 -41 -5z"/>
<path d="M4454 3648 c10 -6 22 -6 26 -2 5 5 -3 10 -18 11 -22 1 -24 0 -8 -9z"/>
<path d="M1885 3627 c-22 -12 -41 -25 -43 -29 -2 -4 -11 -4 -20 -1 -14 4 -14
3 -3 -5 10 -7 25 -3 52 14 21 13 43 24 48 24 5 0 13 5 16 10 10 16 -6 12 -50
-13z"/>
<path d="M4496 3641 c-3 -5 0 -13 7 -19 10 -8 13 -6 13 9 0 20 -11 25 -20 10z"/>
<path d="M4546 3595 c10 -8 25 -15 32 -15 6 0 12 -4 12 -8 0 -5 18 -18 40 -30
22 -11 40 -17 40 -12 0 12 -36 31 -44 23 -3 -3 -6 1 -6 10 0 10 -5 17 -11 17
-5 0 -8 4 -5 9 4 5 -5 8 -19 6 -14 -1 -28 2 -31 6 -3 5 -10 9 -17 9 -6 0 -2
-7 9 -15z"/>
<path d="M1702 3558 c-1 -10 -2 -25 -3 -33 -1 -8 -9 -15 -18 -16 -10 0 -11 -2
-4 -5 7 -3 42 12 79 32 38 21 62 40 54 42 -8 3 -16 0 -18 -6 -2 -7 -9 -12 -16
-12 -8 0 -25 -9 -39 -20 -25 -20 -25 -20 -20 0 3 11 12 20 19 20 8 0 14 3 14
8 0 16 -46 6 -48 -10z"/>
<path d="M1681 3554 c0 -11 3 -14 6 -6 3 7 2 16 -1 19 -3 4 -6 -2 -5 -13z"/>
<path d="M3150 3297 c-19 -13 -55 -35 -80 -49 -121 -68 -199 -114 -239 -140
-25 -15 -48 -28 -51 -28 -4 0 -67 -36 -140 -80 -73 -44 -137 -80 -141 -80 -16
0 -9 -15 14 -29 36 -23 188 -111 247 -144 85 -46 86 -48 48 -67 -18 -10 -78
-43 -133 -75 -55 -32 -121 -70 -148 -85 -46 -26 -47 -27 -25 -38 28 -14 63
-35 144 -85 34 -20 64 -37 67 -37 3 0 35 -18 72 -41 45 -27 70 -37 78 -31 7 6
31 15 55 21 23 7 40 16 37 21 -7 11 63 42 76 34 5 -3 9 2 9 10 0 9 7 16 15 16
8 0 15 5 15 11 0 6 7 9 15 5 8 -3 14 0 12 7 -1 7 4 11 11 10 6 -2 12 1 12 5 0
5 12 14 26 20 14 7 23 8 19 2 -3 -5 -1 -10 4 -10 6 0 11 9 11 20 0 25 14 25
48 2 15 -10 35 -22 45 -25 10 -4 16 -11 13 -15 -6 -10 36 -32 60 -32 19 0 86
-45 78 -52 -4 -5 53 -29 105 -44 7 -2 11 -11 7 -19 -3 -8 -2 -14 2 -13 4 1 38
-13 75 -31 37 -19 71 -31 74 -27 4 3 1 6 -6 6 -7 0 -31 13 -54 29 -23 15 -48
26 -56 23 -9 -3 -11 0 -6 8 5 9 4 11 -3 6 -7 -4 -12 -5 -12 -2 0 6 119 80 142
89 10 3 42 21 70 39 29 18 64 39 78 46 14 7 36 21 49 31 l25 19 -40 20 c-22
11 -93 52 -158 91 -64 38 -126 73 -138 76 -26 9 -13 22 62 63 57 31 208 118
248 143 23 14 29 29 12 29 -5 0 -33 15 -62 33 -29 19 -154 91 -278 162 -124
70 -255 145 -291 166 -36 22 -70 39 -75 39 -5 0 -25 -11 -44 -23z"/>
<path d="M3175 2411 c-14 -6 -8 -8 25 -9 33 0 40 2 25 8 -25 10 -25 10 -50 1z"/>
<path d="M3011 2302 c-8 -16 -7 -21 5 -26 18 -7 31 21 16 36 -7 7 -13 4 -21
-10z"/>
<path d="M3360 2296 c0 -18 17 -29 30 -21 8 5 7 11 -1 21 -15 18 -29 18 -29 0z"/>
<path d="M2865 2279 c-4 -5 -13 -8 -20 -6 -7 3 -32 -8 -56 -24 -24 -16 -39
-29 -34 -29 6 0 19 6 30 14 11 7 36 12 57 10 29 -2 37 1 41 17 6 21 -8 35 -18
18z m9 -14 c-4 -8 -11 -15 -16 -15 -6 0 -5 6 2 15 7 8 14 15 16 15 2 0 1 -7
-2 -15z"/>
<path d="M3490 2280 c0 -5 5 -10 11 -10 5 0 7 5 4 10 -3 6 -8 10 -11 10 -2 0
-4 -4 -4 -10z"/>
<path d="M3442 2265 c3 -16 11 -20 43 -21 29 -1 32 0 10 3 -16 3 -35 12 -42
21 -13 16 -14 15 -11 -3z"/>
<path d="M2940 2260 c0 -5 5 -10 10 -10 6 0 10 5 10 10 0 6 -4 10 -10 10 -5 0
-10 -4 -10 -10z"/>
<path d="M2898 2243 c6 -2 18 -2 25 0 6 3 1 5 -13 5 -14 0 -19 -2 -12 -5z"/>
<path d="M3548 2216 c-32 -14 -24 -31 15 -32 20 -1 27 4 27 17 0 25 -10 28
-42 15z"/>
<path d="M2804 2205 c-4 -8 -14 -15 -23 -16 -10 0 -7 -4 9 -10 32 -13 72 4 64
26 -8 19 -43 20 -50 0z"/>
<path d="M2701 2201 c-10 -6 -10 -10 -1 -16 6 -4 16 -19 21 -33 8 -21 12 -23
19 -12 5 8 7 17 4 21 -2 4 2 10 8 13 7 3 4 4 -8 1 -14 -4 -21 0 -21 10 0 11 7
14 21 9 17 -4 18 -3 6 5 -18 13 -31 13 -49 2z"/>
<path d="M3692 2188 c-7 -7 -12 -9 -12 -4 0 4 -7 1 -15 -8 -18 -17 -19 -26 -5
-26 6 0 23 -11 38 -25 30 -28 52 -32 52 -10 0 8 -8 15 -18 15 -10 0 -27 6 -37
14 -19 14 -19 15 -1 35 20 22 18 29 -2 9z"/>
<path d="M2635 2160 c-16 -11 -25 -20 -20 -20 10 0 64 39 55 40 -3 0 -18 -9
-35 -20z"/>
<path d="M3705 2171 c-3 -6 4 -8 15 -6 12 2 29 -4 40 -15 21 -21 30 -25 30
-12 0 9 -53 42 -68 42 -6 0 -13 -4 -17 -9z"/>
<path d="M2644 2122 c-10 -15 -8 -18 9 -19 29 -3 53 17 35 28 -20 13 -32 11
-44 -9z"/>
<path d="M2840 2126 c0 -19 31 -30 41 -14 4 6 5 16 3 20 -9 14 -44 9 -44 -6z"/>
<path d="M3520 2116 c0 -9 8 -12 25 -8 28 5 24 22 -6 22 -10 0 -19 -6 -19 -14z"/>
<path d="M3808 2123 c6 -2 9 -10 6 -15 -4 -7 -2 -8 5 -4 13 9 5 26 -12 25 -9
0 -8 -2 1 -6z"/>
<path d="M2513 2092 l-23 -17 30 -17 c17 -9 30 -13 30 -8 0 6 4 10 10 10 5 0
7 -6 4 -14 -3 -7 1 -16 8 -19 18 -6 52 19 43 32 -3 6 1 14 10 17 13 6 14 8 3
15 -7 5 -17 9 -23 9 -5 0 -4 -4 4 -9 11 -7 10 -11 -7 -20 -28 -15 -37 -14 -23
2 8 11 5 16 -15 25 -30 14 -24 15 -51 -6z m57 -12 c0 -4 -9 -10 -20 -13 -23
-6 -38 12 -20 23 14 9 40 2 40 -10z m35 -30 c-3 -5 -14 -10 -23 -10 -15 0 -15
2 -2 10 20 13 33 13 25 0z"/>
<path d="M3828 2096 c-22 -16 -22 -22 -3 -30 8 -3 14 -2 14 2 -3 16 2 32 9 32
17 -1 34 -19 27 -30 -6 -9 -9 -9 -16 1 -6 10 -9 8 -9 -9 0 -22 1 -22 25 -6 14
9 25 19 25 22 0 8 -34 31 -45 31 -5 0 -18 -6 -27 -13z"/>
<path d="M2765 2090 c3 -5 12 -10 20 -10 8 0 17 5 20 10 4 6 -5 10 -20 10 -15
0 -24 -4 -20 -10z"/>
<path d="M2696 2075 c-3 -9 0 -15 8 -15 7 0 13 7 13 15 0 8 -4 15 -8 15 -4 0
-9 -7 -13 -15z"/>
<path d="M3740 2078 c-16 -7 -20 -12 -12 -15 8 -3 21 2 30 11 19 18 17 19 -18
4z"/>
<path d="M3782 2061 c-10 -6 -8 -11 10 -23 23 -15 48 -14 48 3 0 4 -7 5 -17 2
-11 -4 -14 -3 -9 5 5 8 1 10 -10 5 -12 -4 -15 -3 -10 5 8 14 6 15 -12 3z"/>
<path d="M2621 2026 c-10 -12 -5 -18 26 -32 21 -10 46 -28 56 -39 10 -11 16
-14 12 -7 -3 6 -3 12 0 12 4 0 13 -6 20 -12 53 -48 92 -71 99 -59 5 8 -33 38
-41 33 -2 -1 -2 1 0 4 1 4 -8 11 -21 15 -20 8 -21 11 -10 22 7 8 20 16 28 20
10 4 8 6 -6 6 -12 1 -24 -6 -28 -14 -7 -20 -18 -19 -42 3 -11 10 -25 17 -32
14 -8 -2 -10 2 -5 14 5 15 2 16 -27 11 -28 -6 -31 -5 -20 8 7 8 10 15 7 15 -2
0 -10 -6 -16 -14z"/>
<path d="M2760 2026 c0 -15 21 -26 52 -26 21 0 20 1 -2 20 -27 23 -50 26 -50
6z"/>
<path d="M3590 2020 c-9 -16 -8 -20 5 -20 9 0 13 -4 10 -10 -3 -5 1 -10 9 -10
10 0 13 6 10 15 -4 8 -1 15 5 15 6 0 11 7 11 15 0 22 -38 18 -50 -5z"/>
<path d="M3770 2026 c10 -13 7 -15 -17 -13 -19 1 -27 -2 -25 -12 2 -8 -3 -11
-13 -8 -8 4 -15 2 -15 -3 0 -5 -11 -12 -25 -16 -14 -3 -25 -12 -25 -20 0 -8
-4 -14 -10 -14 -5 0 -10 5 -10 10 0 6 -5 10 -10 10 -7 0 -7 -7 1 -21 8 -15 14
-18 22 -10 6 6 19 11 28 11 10 0 24 8 31 18 7 10 30 26 51 36 31 14 36 20 26
32 -6 8 -14 14 -16 14 -3 0 0 -7 7 -14z m-75 -66 c-3 -5 -12 -10 -18 -10 -7 0
-6 4 3 10 19 12 23 12 15 0z"/>
<path d="M3443 1923 c-24 -9 -13 -23 18 -23 20 0 29 4 27 13 -5 13 -26 18 -45
10z"/>
<path d="M3596 1921 c-4 -5 -22 -8 -41 -7 -19 2 -32 -1 -29 -5 3 -5 -3 -9 -13
-10 -13 0 -12 -3 7 -10 27 -11 27 -10 -27 -46 -17 -12 -17 -12 2 -6 34 12 85
50 77 58 -4 5 1 5 10 2 19 -7 45 18 29 27 -5 4 -12 2 -15 -3z m-32 -26 c-7
-17 -20 -20 -28 -6 -4 5 0 12 6 14 23 9 28 7 22 -8z"/>
<path d="M2860 1899 c14 -11 19 -18 13 -14 -7 3 -18 3 -23 0 -11 -7 30 -45 47
-45 4 0 0 7 -10 14 -13 10 -15 16 -7 21 7 4 17 2 23 -4 6 -6 15 -11 21 -11 12
0 -23 33 -51 49 -34 18 -40 13 -13 -10z"/>
<path d="M2965 1910 c3 -5 15 -10 26 -10 11 0 17 5 14 10 -3 6 -15 10 -26 10
-11 0 -17 -4 -14 -10z"/>
<path d="M3366 1893 c-8 -9 14 -33 30 -33 8 0 14 3 14 8 0 11 -37 32 -44 25z"/>
<path d="M2960 1850 c0 -4 10 -15 23 -24 20 -16 20 -17 2 -13 -11 3 -29 8 -40
12 -24 9 75 -57 128 -84 38 -19 73 -19 61 1 -4 6 -10 5 -15 -3 -6 -10 -11 -11
-16 -3 -5 6 -23 17 -40 25 -18 8 -33 17 -33 21 0 5 -6 8 -14 8 -9 0 -14 9 -13
21 1 15 7 19 20 15 31 -8 10 7 -28 20 -19 6 -35 8 -35 4z"/>
<path d="M3367 1833 c-2 -5 -3 -20 -2 -35 1 -21 -3 -28 -16 -28 -10 0 -21 -5
-24 -11 -9 -13 4 -27 13 -14 4 6 20 17 35 25 26 13 27 15 11 27 -21 16 -11 17
17 3 13 -8 19 -7 19 0 0 6 3 9 8 6 4 -2 16 2 27 10 10 8 14 14 8 14 -7 0 -14
-4 -17 -8 -2 -4 -17 -7 -33 -6 -45 2 -49 5 -28 14 16 7 17 9 3 9 -9 1 -19 -2
-21 -6z"/>
<path d="M3148 1732 c4 -19 2 -23 -9 -17 -8 4 0 -4 16 -18 17 -14 32 -23 35
-20 3 2 -3 9 -13 14 -21 12 -22 38 -1 53 14 10 12 12 -8 12 -21 0 -24 -4 -20
-24z"/>
<path d="M3233 1745 c6 -7 21 -10 32 -7 18 5 18 4 6 -11 -9 -11 -10 -17 -2
-17 6 0 11 5 11 11 0 5 4 8 9 4 5 -3 12 -1 16 5 3 5 -1 10 -9 10 -9 0 -16 3
-16 8 0 4 -13 7 -29 8 -22 1 -26 -2 -18 -11z"/>
<path d="M3194 1735 c-4 -8 -11 -12 -16 -9 -6 4 -9 1 -6 -7 7 -22 31 -16 33 9
2 25 -3 29 -11 7z"/>
<path d="M3214 1689 c-19 -22 -19 -22 3 -10 24 12 39 31 25 31 -5 0 -17 -10
-28 -21z"/>
<path d="M2280 1190 l0 -230 50 0 50 0 0 230 0 230 -50 0 -50 0 0 -230z"/>
<path d="M2470 1190 l0 -230 50 0 50 0 0 230 0 230 -50 0 -50 0 0 -230z"/>
<path d="M2892 1403 c-72 -25 -103 -114 -63 -179 18 -30 74 -64 104 -64 8 0
45 -9 81 -20 65 -20 66 -22 66 -55 0 -40 -20 -55 -74 -55 -52 0 -86 19 -93 52
-5 27 -8 28 -59 28 -52 0 -54 -1 -54 -27 0 -43 36 -92 83 -113 57 -27 176 -27
234 -1 70 32 99 104 70 174 -20 47 -63 73 -157 93 -93 21 -110 29 -110 56 0
29 28 47 76 48 39 0 84 -27 84 -50 0 -6 23 -10 50 -10 44 0 50 3 50 20 0 39
-30 81 -73 101 -51 23 -153 24 -215 2z"/>
<path d="M4280 1190 l0 -230 55 0 55 0 0 53 c0 47 12 77 31 77 3 0 25 -29 48
-65 l42 -65 55 0 c30 0 54 3 54 8 -1 4 -29 50 -65 102 l-63 95 61 65 62 65
-54 3 -54 3 -58 -63 -58 -63 -1 123 0 122 -55 0 -55 0 0 -230z"/>
<path d="M1900 1388 c-5 -13 -32 -84 -60 -158 -28 -74 -62 -161 -75 -193 -14
-32 -25 -63 -25 -68 0 -6 24 -9 58 -7 l57 3 15 47 15 48 86 0 87 0 18 -50 18
-50 58 0 c32 0 58 3 58 6 0 3 -18 51 -40 107 -22 56 -60 154 -84 217 l-43 115
-67 3 c-61 3 -67 1 -76 -20z m125 -227 c6 -20 3 -21 -49 -21 -31 0 -56 4 -56
8 0 7 30 103 47 152 4 13 26 -40 58 -139z"/>
<path d="M3280 1345 c0 -41 -2 -45 -25 -45 -22 0 -25 -4 -25 -35 0 -31 3 -35
25 -35 25 0 25 0 25 -99 0 -106 12 -156 40 -171 10 -6 44 -10 74 -10 l56 0 0
39 c0 36 -3 40 -27 43 l-28 3 -3 98 -3 97 36 0 c33 0 35 2 35 35 0 33 -2 35
-35 35 -35 0 -35 0 -35 45 l0 45 -55 0 -55 0 0 -45z"/>
<path d="M3629 1299 c-56 -8 -92 -30 -107 -65 -19 -39 -15 -44 33 -44 34 0 50
6 70 26 20 20 32 24 53 19 68 -17 51 -56 -29 -68 -91 -14 -100 -17 -125 -42
-26 -26 -33 -89 -14 -126 26 -48 118 -63 183 -30 30 15 39 16 47 5 15 -17 64
-27 90 -19 25 8 30 75 5 75 -12 0 -15 17 -15 89 0 98 -11 140 -41 159 -30 19
-98 29 -150 21z m87 -224 c-6 -29 -14 -39 -41 -51 -19 -7 -41 -11 -50 -8 -19
8 -31 52 -17 66 11 11 104 38 111 32 2 -2 0 -19 -3 -39z"/>
<path d="M3960 1277 c-52 -34 -75 -82 -75 -152 1 -109 54 -166 160 -173 76 -5
127 15 155 60 33 55 28 68 -30 68 -27 0 -50 -4 -50 -10 0 -18 -39 -50 -60 -50
-12 0 -32 11 -45 25 -33 33 -36 119 -4 159 27 35 72 35 95 1 14 -21 24 -25 66
-25 50 0 50 0 43 28 -15 61 -68 92 -158 92 -50 0 -71 -5 -97 -23z"/>
</g>
</svg>
